<svg width="50" height="50" viewBox="0 0 50 50" fill="none" xmlns="http://www.w3.org/2000/svg">
<circle cx="25" cy="25" r="25" fill="#99E5B2"/>
<g clip-path="url(#clip0_1201_25663)">
<path d="M45.9486 4.05229C45.3254 3.43005 44.4807 3.08057 43.6001 3.08057C42.7194 3.08057 41.8748 3.43005 41.2516 4.05229L26.3429 18.961C25.916 19.3855 25.5775 19.8905 25.347 20.4467C25.1165 21.0029 24.9985 21.5993 25 22.2014V24.0833C25 24.3264 25.0966 24.5596 25.2685 24.7315C25.4404 24.9034 25.6736 25 25.9167 25H27.7986C28.4006 25.0017 28.997 24.8839 29.5532 24.6536C30.1095 24.4232 30.6145 24.0848 31.039 23.658L45.9486 8.74837C46.5706 8.12522 46.9199 7.28076 46.9199 6.40033C46.9199 5.51991 46.5706 4.67545 45.9486 4.05229ZM29.7428 22.3618C29.2258 22.8754 28.5273 23.1645 27.7986 23.1666H26.8333V22.2014C26.8324 21.8401 26.9032 21.4823 27.0415 21.1485C27.1798 20.8148 27.3829 20.5118 27.6391 20.2571L38.9535 8.94271L41.0618 11.051L29.7428 22.3618ZM44.6515 7.45221L42.3543 9.75029L40.246 7.64654L42.5441 5.34846C42.6825 5.21032 42.8468 5.10081 43.0276 5.02617C43.2083 4.95152 43.402 4.91322 43.5976 4.91343C43.7932 4.91364 43.9868 4.95237 44.1674 5.02741C44.348 5.10244 44.512 5.21231 44.6501 5.35075C44.7883 5.48918 44.8978 5.65347 44.9724 5.83423C45.0471 6.01499 45.0854 6.20868 45.0852 6.40424C45.085 6.59981 45.0462 6.79342 44.9712 6.97401C44.8962 7.15461 44.7863 7.31866 44.6478 7.45679L44.6515 7.45221Z" fill="#2B4A52"/>
</g>
<defs>
<clipPath id="clip0_1201_25663">
<rect width="22" height="22" fill="white" transform="translate(25 3)"/>
</clipPath>
</defs>
</svg>
