<svg width="250" height="250" viewBox="0 0 250 250" fill="none" xmlns="http://www.w3.org/2000/svg">
<path fill-rule="evenodd" clip-rule="evenodd" d="M201.005 25.2788C222.659 41.5239 238.891 64.5471 246.515 91.1714L247.292 93.8913L212.715 78.701L212.497 78.3027C203.909 62.6378 191.188 49.5294 175.793 40.4331C160.925 31.6471 143.555 26.6011 124.999 26.6011C106.441 26.6011 89.0708 31.6471 74.2033 40.4343C58.8097 49.5306 46.0876 62.639 37.5002 78.3039L37.2802 78.7022C25.7629 83.7818 14.2305 88.8302 2.70508 93.8913L3.48383 91.1714C11.1085 64.5448 27.3402 41.5239 48.9931 25.2788C70.143 9.40893 96.4685 0 124.999 0C153.529 0 179.854 9.41009 201.005 25.2788Z" fill="#F9F9F9"/>
<path fill-rule="evenodd" clip-rule="evenodd" d="M125 250C194.035 250 250 194.334 250 125.665C250 119.556 249.549 113.552 248.693 107.678L221.344 95.6628L136.734 58.4926C133.044 56.8716 129.031 56.0437 125 56.0437C120.822 56.0437 116.852 56.9214 113.262 58.4984L28.6559 95.6652L1.30725 107.678C0.450492 113.551 0 119.556 0 125.665C0 194.334 55.9638 250 125 250ZM184.192 167.663C184.192 186.291 157.691 201.391 125 201.391C92.3095 201.391 65.8083 186.291 65.8083 167.663V144.366L113.262 165.211C116.852 166.787 120.822 167.664 125 167.664C129.031 167.664 133.044 166.838 136.734 165.216L184.192 144.367V167.663ZM225.388 115.214C225.747 118.649 225.929 122.135 225.929 125.665C225.929 181.111 180.741 226.057 125 226.057C69.2574 226.057 24.0706 181.111 24.0706 125.665C24.0706 122.135 24.2534 118.649 24.6119 115.212L113.262 154.154C116.852 155.731 120.822 156.609 125 156.609C129.031 156.609 133.044 155.782 136.734 154.16L182.334 134.128L129.483 106.961V106.96C127.25 106.005 125.686 103.8 125.686 101.229C125.686 97.7864 128.492 94.9947 131.953 94.9947C133.152 94.9947 134.272 95.3294 135.225 95.9106L197.021 127.676L225.388 115.214Z" fill="#F9F9F9"/>
</svg>
