<svg width="26" height="26" viewBox="0 0 26 26" fill="none" xmlns="http://www.w3.org/2000/svg">
<g clip-path="url(#clip0_430_36)">
<path d="M20.5833 2.16667H19.5V1.08333C19.5 0.796016 19.3859 0.520465 19.1827 0.317301C18.9795 0.114137 18.704 0 18.4167 0C18.1293 0 17.8538 0.114137 17.6506 0.317301C17.4475 0.520465 17.3333 0.796016 17.3333 1.08333V2.16667H8.66667V1.08333C8.66667 0.796016 8.55253 0.520465 8.34937 0.317301C8.1462 0.114137 7.87065 0 7.58333 0C7.29602 0 7.02047 0.114137 6.8173 0.317301C6.61414 0.520465 6.5 0.796016 6.5 1.08333V2.16667H5.41667C3.98061 2.16839 2.60385 2.73962 1.5884 3.75507C0.572955 4.77052 0.00172018 6.14727 0 7.58333L0 20.5833C0.00172018 22.0194 0.572955 23.3961 1.5884 24.4116C2.60385 25.427 3.98061 25.9983 5.41667 26H20.5833C22.0194 25.9983 23.3961 25.427 24.4116 24.4116C25.427 23.3961 25.9983 22.0194 26 20.5833V7.58333C25.9983 6.14727 25.427 4.77052 24.4116 3.75507C23.3961 2.73962 22.0194 2.16839 20.5833 2.16667ZM2.16667 7.58333C2.16667 6.72138 2.50908 5.89473 3.11857 5.28524C3.72806 4.67574 4.55471 4.33333 5.41667 4.33333H20.5833C21.4453 4.33333 22.2719 4.67574 22.8814 5.28524C23.4909 5.89473 23.8333 6.72138 23.8333 7.58333V8.66667H2.16667V7.58333ZM20.5833 23.8333H5.41667C4.55471 23.8333 3.72806 23.4909 3.11857 22.8814C2.50908 22.2719 2.16667 21.4453 2.16667 20.5833V10.8333H23.8333V20.5833C23.8333 21.4453 23.4909 22.2719 22.8814 22.8814C22.2719 23.4909 21.4453 23.8333 20.5833 23.8333Z" fill="#2B4A52"/>
<path d="M13 17.875C13.8975 17.875 14.625 17.1475 14.625 16.25C14.625 15.3525 13.8975 14.625 13 14.625C12.1025 14.625 11.375 15.3525 11.375 16.25C11.375 17.1475 12.1025 17.875 13 17.875Z" fill="#2B4A52"/>
<path d="M7.58337 17.875C8.48084 17.875 9.20837 17.1475 9.20837 16.25C9.20837 15.3525 8.48084 14.625 7.58337 14.625C6.68591 14.625 5.95837 15.3525 5.95837 16.25C5.95837 17.1475 6.68591 17.875 7.58337 17.875Z" fill="#2B4A52"/>
<path d="M18.4166 17.875C19.3141 17.875 20.0416 17.1475 20.0416 16.25C20.0416 15.3525 19.3141 14.625 18.4166 14.625C17.5192 14.625 16.7916 15.3525 16.7916 16.25C16.7916 17.1475 17.5192 17.875 18.4166 17.875Z" fill="#2B4A52"/>
</g>
<defs>
<clipPath id="clip0_430_36">
<rect width="26" height="26" fill="white"/>
</clipPath>
</defs>
</svg>
