<svg width="24" height="24" viewBox="0 0 24 24" fill="none" xmlns="http://www.w3.org/2000/svg">
<g clip-path="url(#clip0_51_1300)">
<path d="M22.057 5.22998L14.683 1.71698C13.0598 0.747414 11.0395 0.730211 9.40003 1.67198L1.94306 5.22998C1.91508 5.24399 1.88606 5.25899 1.85906 5.27498C0.0894372 6.28682 -0.524907 8.54165 0.486937 10.3113C0.829921 10.9112 1.33444 11.4027 1.94306 11.73L4.00008 12.71V17.61C4.0013 19.8011 5.427 21.7368 7.51908 22.388C8.97497 22.8092 10.4846 23.0154 12.0001 23C13.5154 23.017 15.025 22.8125 16.4811 22.393C18.5732 21.7419 19.9989 19.8061 20.0001 17.615V12.708L22.0001 11.752V20C22.0001 20.5522 22.4478 20.9999 23.0001 20.9999C23.5524 20.9999 24.0001 20.5522 24.0001 20V7.99996C24.0067 6.8257 23.0796 5.74091 22.057 5.22998ZM18 17.615C18.0006 18.9256 17.1502 20.0849 15.9 20.478C14.6323 20.8402 13.3185 21.0161 12 21C10.6816 21.0161 9.36783 20.8402 8.10005 20.478C6.84984 20.0848 5.99953 18.9256 6.00005 17.615V13.663L9.31706 15.243C10.1355 15.729 11.0702 15.9844 12.0221 15.982C12.9281 15.9884 13.8188 15.7486 14.5991 15.288L18 13.663V17.615ZM21.2001 9.92498L13.6581 13.525C12.6065 14.1373 11.303 14.12 10.2681 13.48L2.88905 9.96998C2.06653 9.52645 1.75931 8.50012 2.20284 7.67765C2.35284 7.39949 2.57775 7.16891 2.85206 7.01198L10.347 3.43199C11.399 2.82102 12.7017 2.83832 13.737 3.47699L21.111 6.98999C21.6533 7.29112 21.9926 7.85976 22 8.48001C22.001 9.06754 21.6985 9.61391 21.2001 9.92498Z" fill="#2B4A52"/>
</g>
<defs>
<clipPath id="clip0_51_1300">
<rect width="24" height="24" fill="white"/>
</clipPath>
</defs>
</svg>
