<svg width="24" height="24" viewBox="0 0 24 24" fill="none" xmlns="http://www.w3.org/2000/svg">
<g clip-path="url(#clip0_51_1266)">
<path d="M23.1209 9.069L15.5359 1.483C14.5971 0.546993 13.3256 0.0213776 11.9999 0.0213776C10.6742 0.0213776 9.40265 0.546993 8.46389 1.483L0.87889 9.069C0.599315 9.34679 0.37766 9.6773 0.226772 10.0414C0.0758852 10.4055 -0.00123247 10.7959 -0.000109991 11.19V21.007C-0.000109991 21.8027 0.315961 22.5657 0.87857 23.1283C1.44118 23.6909 2.20424 24.007 2.99989 24.007H20.9999C21.7955 24.007 22.5586 23.6909 23.1212 23.1283C23.6838 22.5657 23.9999 21.8027 23.9999 21.007V11.19C24.001 10.7959 23.9239 10.4055 23.773 10.0414C23.6221 9.6773 23.4005 9.34679 23.1209 9.069ZM14.9999 22.007H8.99989V18.073C8.99989 17.2774 9.31596 16.5143 9.87857 15.9517C10.4412 15.3891 11.2042 15.073 11.9999 15.073C12.7955 15.073 13.5586 15.3891 14.1212 15.9517C14.6838 16.5143 14.9999 17.2774 14.9999 18.073V22.007ZM21.9999 21.007C21.9999 21.2722 21.8945 21.5266 21.707 21.7141C21.5195 21.9016 21.2651 22.007 20.9999 22.007H16.9999V18.073C16.9999 16.7469 16.4731 15.4752 15.5354 14.5375C14.5977 13.5998 13.326 13.073 11.9999 13.073C10.6738 13.073 9.40204 13.5998 8.46436 14.5375C7.52667 15.4752 6.99989 16.7469 6.99989 18.073V22.007H2.99989C2.73467 22.007 2.48032 21.9016 2.29278 21.7141C2.10525 21.5266 1.99989 21.2722 1.99989 21.007V11.19C2.00082 10.925 2.10608 10.671 2.29289 10.483L9.87789 2.9C10.4416 2.33893 11.2046 2.02395 11.9999 2.02395C12.7952 2.02395 13.5582 2.33893 14.1219 2.9L21.7069 10.486C21.893 10.6733 21.9982 10.926 21.9999 11.19V21.007Z" fill="#2B4A52"/>
</g>
<defs>
<clipPath id="clip0_51_1266">
<rect width="24" height="24" fill="white"/>
</clipPath>
</defs>
</svg>
