<svg width="24" height="24" viewBox="0 0 24 24" fill="none" xmlns="http://www.w3.org/2000/svg">
<g clip-path="url(#clip0_51_1291)">
<path d="M24 23C24 23.2652 23.8947 23.5196 23.7071 23.7071C23.5196 23.8946 23.2652 24 23 24H1.00002C0.734808 24 0.480454 23.8946 0.292918 23.7071C0.105381 23.5196 2.46237e-05 23.2652 2.46237e-05 23C2.46237e-05 22.7348 0.105381 22.4804 0.292918 22.2929C0.480454 22.1054 0.734808 22 1.00002 22H23C23.2652 22 23.5196 22.1054 23.7071 22.2929C23.8947 22.4804 24 22.7348 24 23ZM0.291025 8.552C0.0755469 8.15232 -0.0242807 7.7005 0.00274505 7.24724C0.0297708 6.79399 0.18258 6.35723 0.444025 5.98599C0.871283 5.35911 1.44347 4.84456 2.11202 4.48599L9.61302 0.581994C10.3503 0.198625 11.169 -0.00152588 12 -0.00152588C12.831 -0.00152588 13.6498 0.198625 14.387 0.581994L21.887 4.48899C22.5556 4.84756 23.1278 5.36211 23.555 5.98899C23.8165 6.36023 23.9693 6.79699 23.9963 7.25025C24.0233 7.7035 23.9235 8.15532 23.708 8.555C23.476 8.99382 23.1281 9.3606 22.7021 9.61538C22.2761 9.87017 21.7884 10.0032 21.292 10H21V18H22C22.2652 18 22.5196 18.1054 22.7071 18.2929C22.8947 18.4804 23 18.7348 23 19C23 19.2652 22.8947 19.5196 22.7071 19.7071C22.5196 19.8946 22.2652 20 22 20H2.00002C1.73481 20 1.48045 19.8946 1.29292 19.7071C1.10538 19.5196 1.00002 19.2652 1.00002 19C1.00002 18.7348 1.10538 18.4804 1.29292 18.2929C1.48045 18.1054 1.73481 18 2.00002 18H3.00002V10H2.70802C2.21118 10.0031 1.72303 9.8697 1.29681 9.61436C0.870596 9.35902 0.522683 8.99154 0.291025 8.552ZM5.00002 18H8.00002V10H5.00002V18ZM10 10V18H14V10H10ZM19 10H16V18H19V10ZM2.06302 7.625C2.12577 7.74067 2.21914 7.83685 2.33291 7.903C2.44668 7.96914 2.57645 8.0027 2.70802 8H21.292C21.4236 8.0027 21.5534 7.96914 21.6671 7.903C21.7809 7.83685 21.8743 7.74067 21.937 7.625C21.9827 7.54856 22.0048 7.46032 22.0006 7.37137C21.9963 7.28241 21.9658 7.1967 21.913 7.125C21.6707 6.76491 21.3452 6.46853 20.964 6.261L13.464 2.35399C13.012 2.11942 12.5103 1.99697 12.001 1.99697C11.4918 1.99697 10.99 2.11942 10.538 2.35399L3.03802 6.261C2.65701 6.4692 2.33155 6.76585 2.08902 7.126C2.03611 7.1974 2.00543 7.28282 2.0008 7.37158C1.99618 7.46033 2.01782 7.54848 2.06302 7.625Z" fill="#2B4A52"/>
</g>
<defs>
<clipPath id="clip0_51_1291">
<rect width="24" height="24" fill="white"/>
</clipPath>
</defs>
</svg>
