<svg width="30" height="30" viewBox="0 0 30 30" fill="none" xmlns="http://www.w3.org/2000/svg">
<path d="M28.9013 11.3361L19.42 1.85364C18.2466 0.68363 16.6571 0.0266113 15 0.0266113C13.3429 0.0266113 11.7535 0.68363 10.58 1.85364L1.09877 11.3361C0.749297 11.6834 0.472227 12.0965 0.283618 12.5516C0.095009 13.0067 -0.001388 13.4948 1.50994e-05 13.9874V26.2586C1.50994e-05 27.2532 0.395103 28.207 1.09836 28.9103C1.80163 29.6136 2.75545 30.0086 3.75002 30.0086H26.25C27.2446 30.0086 28.1984 29.6136 28.9017 28.9103C29.6049 28.207 30 27.2532 30 26.2586V13.9874C30.0014 13.4948 29.905 13.0067 29.7164 12.5516C29.5278 12.0965 29.2507 11.6834 28.9013 11.3361ZM18.75 27.5086H11.25V22.5911C11.25 21.5966 11.6451 20.6428 12.3484 19.9395C13.0516 19.2362 14.0055 18.8411 15 18.8411C15.9946 18.8411 16.9484 19.2362 17.6517 19.9395C18.3549 20.6428 18.75 21.5966 18.75 22.5911V27.5086ZM27.5 26.2586C27.5 26.5902 27.3683 26.9081 27.1339 27.1425C26.8995 27.3769 26.5815 27.5086 26.25 27.5086H21.25V22.5911C21.25 20.9335 20.5915 19.3438 19.4194 18.1717C18.2473 16.9996 16.6576 16.3411 15 16.3411C13.3424 16.3411 11.7527 16.9996 10.5806 18.1717C9.4085 19.3438 8.75002 20.9335 8.75002 22.5911V27.5086H3.75002C3.41849 27.5086 3.10055 27.3769 2.86613 27.1425C2.63171 26.9081 2.50002 26.5902 2.50002 26.2586V13.9874C2.50117 13.6561 2.63275 13.3386 2.86627 13.1036L12.3475 3.62489C13.0521 2.92356 14.0058 2.52982 15 2.52982C15.9942 2.52982 16.9479 2.92356 17.6525 3.62489L27.1338 13.1074C27.3664 13.3415 27.4979 13.6574 27.5 13.9874V26.2586Z" fill="#F9F9F9"/>
</svg>
