<svg width="30" height="30" viewBox="0 0 30 30" fill="none" xmlns="http://www.w3.org/2000/svg">
<g clip-path="url(#clip0_555_2041)">
<path d="M8.75 7.5H28.75C29.0815 7.5 29.3995 7.3683 29.6339 7.13388C29.8683 6.89946 30 6.58152 30 6.25C30 5.91848 29.8683 5.60054 29.6339 5.36612C29.3995 5.1317 29.0815 5 28.75 5H8.75C8.41848 5 8.10054 5.1317 7.86612 5.36612C7.6317 5.60054 7.5 5.91848 7.5 6.25C7.5 6.58152 7.6317 6.89946 7.86612 7.13388C8.10054 7.3683 8.41848 7.5 8.75 7.5Z" fill="#FDFCFA"/>
<path d="M28.75 13.75H8.75C8.41848 13.75 8.10054 13.8817 7.86612 14.1161C7.6317 14.3505 7.5 14.6685 7.5 15C7.5 15.3315 7.6317 15.6495 7.86612 15.8839C8.10054 16.1183 8.41848 16.25 8.75 16.25H28.75C29.0815 16.25 29.3995 16.1183 29.6339 15.8839C29.8683 15.6495 30 15.3315 30 15C30 14.6685 29.8683 14.3505 29.6339 14.1161C29.3995 13.8817 29.0815 13.75 28.75 13.75Z" fill="#FDFCFA"/>
<path d="M28.75 22.5H8.75C8.41848 22.5 8.10054 22.6317 7.86612 22.8661C7.6317 23.1005 7.5 23.4185 7.5 23.75C7.5 24.0815 7.6317 24.3995 7.86612 24.6339C8.10054 24.8683 8.41848 25 8.75 25H28.75C29.0815 25 29.3995 24.8683 29.6339 24.6339C29.8683 24.3995 30 24.0815 30 23.75C30 23.4185 29.8683 23.1005 29.6339 22.8661C29.3995 22.6317 29.0815 22.5 28.75 22.5Z" fill="#FDFCFA"/>
<path d="M2.5 8.75C3.88071 8.75 5 7.63071 5 6.25C5 4.86929 3.88071 3.75 2.5 3.75C1.11929 3.75 0 4.86929 0 6.25C0 7.63071 1.11929 8.75 2.5 8.75Z" fill="#FDFCFA"/>
<path d="M2.5 17.5C3.88071 17.5 5 16.3807 5 15C5 13.6193 3.88071 12.5 2.5 12.5C1.11929 12.5 0 13.6193 0 15C0 16.3807 1.11929 17.5 2.5 17.5Z" fill="#FDFCFA"/>
<path d="M2.5 26.25C3.88071 26.25 5 25.1307 5 23.75C5 22.3693 3.88071 21.25 2.5 21.25C1.11929 21.25 0 22.3693 0 23.75C0 25.1307 1.11929 26.25 2.5 26.25Z" fill="#FDFCFA"/>
</g>
<defs>
<clipPath id="clip0_555_2041">
<rect width="30" height="30" fill="white"/>
</clipPath>
</defs>
</svg>
