<svg width="30" height="30" viewBox="0 0 30 30" fill="none" xmlns="http://www.w3.org/2000/svg">
<g clip-path="url(#clip0_555_2058)">
<path d="M27.5709 6.53747L18.3534 2.14622C16.3244 0.934268 13.799 0.912764 11.7497 2.08997L2.42846 6.53747C2.39348 6.55499 2.35721 6.57374 2.32346 6.59372C0.11143 7.85853 -0.6565 10.6771 0.608305 12.8891C1.03704 13.639 1.66768 14.2534 2.42846 14.6625L4.99973 15.8875V22.0125C5.00125 24.7513 6.78338 27.171 9.39848 27.985C11.2183 28.5115 13.1054 28.7692 14.9998 28.75C16.8939 28.7712 18.7809 28.5156 20.601 27.9913C23.2161 27.1774 24.9982 24.7576 24.9998 22.0188V15.885L27.4998 14.69V25C27.4998 25.6903 28.0594 26.2499 28.7498 26.2499C29.4401 26.2499 29.9998 25.6903 29.9998 25V9.99995C30.0081 8.53212 28.8491 7.17614 27.5709 6.53747ZM22.4997 22.0188C22.5003 23.657 21.4374 25.1061 19.8747 25.5975C18.29 26.0503 16.6478 26.2701 14.9997 26.25C13.3516 26.2701 11.7094 26.0503 10.1247 25.5975C8.56194 25.106 7.49905 23.657 7.49969 22.0188V17.0788L11.646 19.0538C12.669 19.6613 13.8374 19.9805 15.0272 19.9775C16.1597 19.9856 17.2732 19.6857 18.2485 19.11L22.4997 17.0787V22.0188ZM26.4997 12.4062L17.0722 16.9062C15.7577 17.6716 14.1284 17.65 12.8347 16.85L3.61094 12.4625C2.5828 11.9081 2.19877 10.6251 2.75319 9.59706C2.94069 9.24937 3.22182 8.96114 3.56471 8.76497L12.9334 4.28999C14.2483 3.52628 15.8768 3.5479 17.1709 4.34624L26.3884 8.73749C27.0663 9.1139 27.4904 9.8247 27.4997 10.6C27.5009 11.3344 27.1227 12.0174 26.4997 12.4062Z" fill="#F9F9F9"/>
</g>
<defs>
<clipPath id="clip0_555_2058">
<rect width="30" height="30" fill="white"/>
</clipPath>
</defs>
</svg>
