<svg width="24" height="24" viewBox="0 0 24 24" fill="none" xmlns="http://www.w3.org/2000/svg">
<g clip-path="url(#clip0_119_256)">
<path d="M22.5444 9.41903C21.0844 6.89303 17.7632 2.65503 11.9343 2.65503C6.10541 2.65503 2.78428 6.89303 1.32423 9.41903C0.87287 10.1945 0.633789 11.0883 0.633789 12C0.633789 12.9118 0.87287 13.8055 1.32423 14.581C2.78428 17.107 6.10541 21.345 11.9343 21.345C17.7632 21.345 21.0844 17.107 22.5444 14.581C22.9958 13.8055 23.2349 12.9118 23.2349 12C23.2349 11.0883 22.9958 10.1945 22.5444 9.41903ZM20.9394 13.534C19.6855 15.7 16.8473 19.345 11.9343 19.345C7.02135 19.345 4.18315 15.7 2.92925 13.534C2.66109 13.0731 2.51905 12.5419 2.51905 12C2.51905 11.4582 2.66109 10.927 2.92925 10.466C4.18315 8.30003 7.02135 4.65503 11.9343 4.65503C16.8473 4.65503 19.6855 8.29603 20.9394 10.466C21.2076 10.927 21.3496 11.4582 21.3496 12C21.3496 12.5419 21.2076 13.0731 20.9394 13.534Z" fill="#2B4A52"/>
<path d="M11.9344 7C11.0034 7 10.0934 7.29324 9.31939 7.84265C8.54536 8.39206 7.94207 9.17295 7.58583 10.0866C7.22958 11.0002 7.13637 12.0055 7.31798 12.9755C7.49959 13.9454 7.94788 14.8363 8.60613 15.5355C9.26439 16.2348 10.1031 16.711 11.0161 16.9039C11.9291 17.0969 12.8755 16.9978 13.7356 16.6194C14.5956 16.241 15.3307 15.6001 15.8479 14.7779C16.3651 13.9556 16.6412 12.9889 16.6412 12C16.6397 10.6744 16.1433 9.40356 15.2609 8.46622C14.3785 7.52888 13.1822 7.00159 11.9344 7ZM11.9344 15C11.3758 15 10.8298 14.8241 10.3654 14.4944C9.90096 14.1648 9.53899 13.6962 9.32524 13.1481C9.11149 12.5999 9.05556 11.9967 9.16453 11.4147C9.2735 10.8328 9.54247 10.2982 9.93742 9.87868C10.3324 9.45912 10.8356 9.1734 11.3834 9.05764C11.9312 8.94189 12.4991 9.0013 13.0151 9.22836C13.5311 9.45542 13.9722 9.83994 14.2825 10.3333C14.5928 10.8266 14.7584 11.4067 14.7584 12C14.7584 12.7957 14.4609 13.5587 13.9313 14.1213C13.4017 14.6839 12.6833 15 11.9344 15Z" fill="#2B4A52"/>
</g>
<defs>
<clipPath id="clip0_119_256">
<rect width="22.5927" height="24" fill="white" transform="translate(0.638184)"/>
</clipPath>
</defs>
</svg>
