<svg width="24" height="24" viewBox="0 0 24 24" fill="none" xmlns="http://www.w3.org/2000/svg">
<path d="M23.2668 9.17019C22.3644 7.55708 21.2261 6.11618 19.8971 4.90466L22.696 1.84928C22.8781 1.64348 22.9789 1.36784 22.9766 1.08172C22.9743 0.795614 22.8692 0.521926 22.6839 0.319607C22.4985 0.117289 22.2478 0.00252748 21.9857 4.12504e-05C21.7236 -0.00244498 21.4711 0.107543 21.2826 0.306315L18.2387 3.6334C16.3518 2.40997 14.1946 1.77231 12 1.78926C5.81129 1.78926 2.2846 6.4138 0.733174 9.17019C0.25388 10.0164 0 10.9917 0 11.9866C0 12.9815 0.25388 13.9568 0.733174 14.803C1.6356 16.4161 2.77391 17.857 4.10293 19.0685L1.30396 22.1239C1.20849 22.2246 1.13233 22.345 1.07994 22.4781C1.02755 22.6112 0.999979 22.7544 0.998825 22.8993C0.997672 23.0442 1.02296 23.1879 1.07323 23.322C1.12349 23.4561 1.19771 23.5779 1.29157 23.6804C1.38543 23.7828 1.49704 23.8639 1.61989 23.9187C1.74274 23.9736 1.87437 24.0012 2.0071 24C2.13983 23.9987 2.271 23.9686 2.39296 23.9114C2.51492 23.8542 2.62523 23.7711 2.71744 23.6669L5.76831 20.3365C7.65288 21.5597 9.80748 22.1985 12 22.1839C18.1887 22.1839 21.7154 17.5594 23.2668 14.803C23.7461 13.9568 24 12.9815 24 11.9866C24 10.9917 23.7461 10.0164 23.2668 9.17019ZM2.43654 13.6605C2.15178 13.1575 2.00096 12.5779 2.00096 11.9866C2.00096 11.3953 2.15178 10.8157 2.43654 10.3127C3.77005 7.94913 6.78393 3.97168 12 3.97168C13.6597 3.96153 15.296 4.39816 16.7642 5.24293L14.752 7.43953C13.7923 6.744 12.6417 6.43234 11.4954 6.55745C10.3492 6.68256 9.27787 7.23672 8.46331 8.1259C7.64875 9.01509 7.1411 10.1845 7.02649 11.4358C6.91188 12.687 7.19738 13.943 7.83454 14.9907L5.5254 17.5114C4.30096 16.4308 3.25608 15.1281 2.43654 13.6605ZM14.9989 11.9866C14.9989 12.8548 14.6829 13.6875 14.1205 14.3014C13.5581 14.9153 12.7954 15.2602 12 15.2602C11.5547 15.2583 11.1155 15.1464 10.7155 14.9328L14.699 10.5844C14.8946 11.0211 14.9972 11.5005 14.9989 11.9866ZM9.00111 11.9866C9.00111 11.1184 9.31707 10.2857 9.87947 9.67179C10.4419 9.05787 11.2046 8.71297 12 8.71297C12.4453 8.71485 12.8845 8.82677 13.2845 9.04033L9.301 13.3888C9.10536 12.9521 9.00284 12.4727 9.00111 11.9866ZM21.5635 13.6605C20.2299 16.0241 17.2161 20.0015 12 20.0015C10.3403 20.0117 8.70399 19.575 7.23577 18.7302L9.24802 16.5336C10.2077 17.2292 11.3583 17.5408 12.5046 17.4157C13.6508 17.2906 14.7221 16.7365 15.5367 15.8473C16.3513 14.9581 16.8589 13.7887 16.9735 12.5374C17.0881 11.2861 16.8026 10.0301 16.1655 8.9825L18.4746 6.46181C19.699 7.54241 20.7439 8.84506 21.5635 10.3127C21.8482 10.8157 21.999 11.3953 21.999 11.9866C21.999 12.5779 21.8482 13.1575 21.5635 13.6605Z" fill="#2B4A52"/>
</svg>
