<svg width="24" height="25" viewBox="0 0 24 25" fill="none" xmlns="http://www.w3.org/2000/svg">
<g clip-path="url(#clip0_119_163)">
<path d="M23.271 9.82774C21.7201 7.28965 18.1921 3.03137 12.0001 3.03137C5.80805 3.03137 2.28005 7.28965 0.729051 9.82774C0.249579 10.607 -0.00439453 11.505 -0.00439453 12.4211C-0.00439453 13.3372 0.249579 14.2352 0.729051 15.0144C2.28005 17.5525 5.80805 21.8108 12.0001 21.8108C18.1921 21.8108 21.7201 17.5525 23.271 15.0144C23.7505 14.2352 24.0045 13.3372 24.0045 12.4211C24.0045 11.505 23.7505 10.607 23.271 9.82774ZM21.566 13.9624C20.2341 16.1388 17.219 19.8012 12.0001 19.8012C6.78105 19.8012 3.76605 16.1388 2.43405 13.9624C2.14919 13.4993 1.9983 12.9656 1.9983 12.4211C1.9983 11.8766 2.14919 11.3429 2.43405 10.8797C3.76605 8.70338 6.78105 5.04094 12.0001 5.04094C17.219 5.04094 20.2341 8.69936 21.566 10.8797C21.8509 11.3429 22.0018 11.8766 22.0018 12.4211C22.0018 12.9656 21.8509 13.4993 21.566 13.9624Z" fill="#879C9D"/>
<path d="M12 7.39709C11.0111 7.39709 10.0444 7.69174 9.22215 8.24378C8.39991 8.79581 7.75904 9.58044 7.3806 10.4984C7.00217 11.4164 6.90315 12.4266 7.09608 13.4011C7.289 14.3757 7.76521 15.2709 8.46447 15.9735C9.16373 16.6761 10.0546 17.1546 11.0246 17.3484C11.9945 17.5423 12.9998 17.4428 13.9134 17.0625C14.827 16.6823 15.6079 16.0383 16.1574 15.2122C16.7068 14.386 17 13.4147 17 12.421C16.9984 11.0891 16.4711 9.81215 15.5338 8.87033C14.5964 7.92851 13.3256 7.39869 12 7.39709ZM12 15.4354C11.4067 15.4354 10.8266 15.2586 10.3333 14.9274C9.83994 14.5961 9.45543 14.1254 9.22836 13.5746C9.0013 13.0238 8.94189 12.4177 9.05765 11.8329C9.1734 11.2482 9.45912 10.7111 9.87868 10.2895C10.2982 9.86798 10.8328 9.58089 11.4147 9.46458C11.9967 9.34827 12.5999 9.40797 13.1481 9.63612C13.6962 9.86427 14.1648 10.2506 14.4944 10.7463C14.8241 11.242 15 11.8248 15 12.421C15 13.2205 14.6839 13.9872 14.1213 14.5525C13.5587 15.1178 12.7957 15.4354 12 15.4354Z" fill="#879C9D"/>
</g>
<defs>
<clipPath id="clip0_119_163">
<rect width="24" height="24.1148" fill="white" transform="translate(0 0.363647)"/>
</clipPath>
</defs>
</svg>
