<svg width="24" height="24" viewBox="0 0 24 24" fill="none" xmlns="http://www.w3.org/2000/svg">
<path d="M12.0005 0C5.38349 0 0.000488281 5.383 0.000488281 12C0.000488281 18.617 5.38349 24 12.0005 24C18.6175 24 24.0005 18.617 24.0005 12C24.0005 5.383 18.6175 0 12.0005 0ZM8.00049 21.164V21C8.00049 18.794 9.79449 17 12.0005 17C14.2065 17 16.0005 18.794 16.0005 21V21.164C14.7745 21.701 13.4225 22 12.0005 22C10.5785 22 9.22649 21.701 8.00049 21.164ZM17.9255 20.051C17.4695 17.192 14.9865 15 12.0005 15C9.01449 15 6.53249 17.192 6.07549 20.051C3.60549 18.228 2.00049 15.298 2.00049 12C2.00049 6.486 6.48649 2 12.0005 2C17.5145 2 22.0005 6.486 22.0005 12C22.0005 15.298 20.3955 18.228 17.9255 20.051ZM12.0005 5C9.79449 5 8.00049 6.794 8.00049 9C8.00049 11.206 9.79449 13 12.0005 13C14.2065 13 16.0005 11.206 16.0005 9C16.0005 6.794 14.2065 5 12.0005 5ZM12.0005 11C10.8975 11 10.0005 10.103 10.0005 9C10.0005 7.897 10.8975 7 12.0005 7C13.1035 7 14.0005 7.897 14.0005 9C14.0005 10.103 13.1035 11 12.0005 11Z" fill="#879C9D"/>
</svg>
