<svg width="24" height="24" viewBox="0 0 24 24" fill="none" xmlns="http://www.w3.org/2000/svg">
<g clip-path="url(#clip0_51_1547)">
<path d="M12 12C13.1867 12 14.3467 11.6481 15.3334 10.9888C16.3201 10.3295 17.0892 9.39243 17.5433 8.29607C17.9974 7.19972 18.1162 5.99332 17.8847 4.82943C17.6532 3.66554 17.0818 2.59645 16.2426 1.75733C15.4035 0.918217 14.3344 0.346772 13.1705 0.115261C12.0067 -0.116251 10.8003 0.0025692 9.7039 0.456695C8.60754 0.910821 7.67047 1.67986 7.01118 2.66655C6.35189 3.65325 6 4.81328 6 5.99997C6.00159 7.59078 6.63424 9.11599 7.75911 10.2409C8.88399 11.3657 10.4092 11.9984 12 12ZM12 1.99997C12.7911 1.99997 13.5645 2.23457 14.2223 2.67409C14.8801 3.11362 15.3928 3.73833 15.6955 4.46924C15.9983 5.20014 16.0775 6.00441 15.9231 6.78033C15.7688 7.55626 15.3878 8.26899 14.8284 8.8284C14.269 9.38781 13.5563 9.76877 12.7804 9.92311C12.0044 10.0775 11.2002 9.99824 10.4693 9.69549C9.73836 9.39274 9.11365 8.88005 8.67412 8.22225C8.2346 7.56446 8 6.7911 8 5.99997C8 4.93911 8.42143 3.92169 9.17157 3.17155C9.92172 2.4214 10.9391 1.99997 12 1.99997Z" fill="#FDFCFA"/>
<path d="M12 14C9.61386 14.0026 7.32622 14.9517 5.63896 16.639C3.95171 18.3262 3.00265 20.6139 3 23C3 23.2652 3.10536 23.5196 3.29289 23.7071C3.48043 23.8946 3.73478 24 4 24C4.26522 24 4.51957 23.8946 4.70711 23.7071C4.89464 23.5196 5 23.2652 5 23C5 21.1435 5.7375 19.363 7.05025 18.0503C8.36301 16.7375 10.1435 16 12 16C13.8565 16 15.637 16.7375 16.9497 18.0503C18.2625 19.363 19 21.1435 19 23C19 23.2652 19.1054 23.5196 19.2929 23.7071C19.4804 23.8946 19.7348 24 20 24C20.2652 24 20.5196 23.8946 20.7071 23.7071C20.8946 23.5196 21 23.2652 21 23C20.9974 20.6139 20.0483 18.3262 18.361 16.639C16.6738 14.9517 14.3861 14.0026 12 14Z" fill="#FDFCFA"/>
</g>
<defs>
<clipPath id="clip0_51_1547">
<rect width="24" height="24" fill="white"/>
</clipPath>
</defs>
</svg>
