<svg width="24" height="24" viewBox="0 0 24 24" fill="none" xmlns="http://www.w3.org/2000/svg">
<g clip-path="url(#clip0_51_1592)">
<path d="M22.903 6.53801C22.227 6.20001 21.43 6.27101 20.826 6.72601C20.787 6.75501 20.75 6.78801 20.716 6.82201L18.959 8.59501C18.748 6.03001 16.618 4.00101 14 4.00101H5C2.243 4.00001 0 6.24301 0 9.00001V15C0 17.757 2.243 20 5 20H14C16.629 20 18.768 17.953 18.962 15.373L20.718 17.127C20.752 17.16 20.787 17.19 20.825 17.219C21.177 17.483 21.593 17.617 22.013 17.617C22.316 17.617 22.619 17.548 22.903 17.406C23.58 17.068 24 16.387 24 15.632V8.31401C24 7.55701 23.58 6.87601 22.903 6.53801ZM14 18H5C3.346 18 2 16.654 2 15V9.00001C2 7.34601 3.346 6.00001 5 6.00001H14C15.654 6.00001 17 7.34601 17 9.00001V15C17 16.654 15.654 18 14 18ZM19 12.583V11.394L22 8.36601L22.025 15.604L19 12.582V12.583Z" fill="#FDFCFA"/>
</g>
<defs>
<clipPath id="clip0_51_1592">
<rect width="24" height="24" fill="white"/>
</clipPath>
</defs>
</svg>
