<svg width="24" height="24" viewBox="0 0 24 24" fill="none" xmlns="http://www.w3.org/2000/svg">
<path fill-rule="evenodd" clip-rule="evenodd" d="M10.235 1.62988C10.8576 2.21522 10.7141 3.1087 10.4177 3.78946L10.4171 3.79063C9.96787 4.81754 9.72085 5.9434 9.73001 7.13425L9.73003 7.13691C9.74832 11.5563 13.4219 15.3266 17.9207 15.5106L17.9213 15.5107C18.5855 15.5383 19.2204 15.4923 19.8369 15.3819C20.2417 15.3082 20.6357 15.2958 20.9883 15.3781C21.3478 15.4619 21.705 15.6568 21.9262 16.0189C22.1466 16.3795 22.1581 16.7846 22.0736 17.14C21.9904 17.4901 21.8067 17.8358 21.5644 18.1641C19.4403 21.0703 15.9041 22.9104 11.9575 22.7393L11.9571 22.7393C6.35637 22.493 1.66962 18.0129 1.28192 12.4732C0.92768 7.56243 3.84218 3.28552 8.0786 1.49895C8.75841 1.21101 9.6359 1.0665 10.235 1.62988ZM9.17018 2.74538C9.0701 2.74814 8.90195 2.77911 8.6628 2.88051L8.66146 2.88108C4.97813 4.4344 2.47271 8.1371 2.77808 12.366L2.77821 12.3677C3.11092 17.1274 7.16373 21.0268 12.0225 21.2407M9.25051 2.75153C9.25048 2.75156 9.24965 2.75134 9.24813 2.75074C9.24978 2.75119 9.25055 2.75149 9.25051 2.75153ZM9.17018 2.74538C9.16424 2.83332 9.13411 2.97981 9.04269 3.18991C8.51227 4.40248 8.2194 5.73599 8.23004 7.14445C8.25247 12.3844 12.5786 16.7934 17.8594 17.0094C18.6346 17.0417 19.3792 16.9878 20.1023 16.8583L20.1047 16.8578C20.3441 16.8141 20.5063 16.8161 20.6039 16.8306C20.5739 16.9268 20.5033 17.0761 20.3568 17.2744L20.3544 17.2776C18.5185 19.7903 15.4555 21.3894 12.023 21.2407M20.6953 16.854C20.6952 16.854 20.6948 16.8538 20.694 16.8533L20.6953 16.854ZM20.6226 16.74C20.6225 16.7387 20.6225 16.738 20.6225 16.738C20.6225 16.7379 20.6226 16.7386 20.6226 16.74Z" fill="#FDFCFA"/>
</svg>
